<svg width="587" height="1080" viewBox="0 0 587 1080" fill="none" xmlns="http://www.w3.org/2000/svg">
<path d="M289.641 833.016C245.718 954.074 271.235 1022.4 289.641 1060C120.226 1032.49 144.563 879.788 174.188 797.249C234.424 629.418 502.978 530.37 529.331 384.55C542.964 309.115 499.213 240.106 467.84 202.963C540.625 263.492 565.407 293.757 577.018 384.55C595.841 531.746 338.505 698.336 289.641 833.016Z" fill="#D64045"/>
<path d="M356.152 490.476C493.691 483.873 499.632 366.667 485.409 307.513C455.291 453.914 346.113 402.434 317.25 392.804C290.81 383.983 202.479 325.559 120.227 348.783C37.4018 372.169 -4.01063 442.328 11.0485 535.873C24.7789 621.164 134.334 672.063 187.992 617.037C226.895 577.143 216.856 526.243 203.052 508.36C206.063 577.693 154.11 583.104 127.756 577.143C54.9707 557.884 91.2497 441.555 156.62 445.079C233.17 449.206 280.857 494.091 356.152 490.476Z" fill="#D64045"/>
<path d="M411.368 256.614C411.368 299.259 370.793 340.988 347.368 358.413C403.839 251.111 277.092 225.067 277.092 134.18C277.092 70.8995 323.942 38.3422 349.877 20C277.16 130.378 411.368 166.864 411.368 256.614Z" fill="#D64045"/>
</svg>
