<svg width="1080" height="612" viewBox="0 0 1080 612" fill="none" xmlns="http://www.w3.org/2000/svg">
<path d="M202.085 474.864C173.689 544.678 190.185 584.08 202.085 605.765C92.5561 589.898 108.29 501.837 127.443 454.237C166.387 357.45 340.011 300.329 357.048 216.235C365.862 172.731 337.576 132.934 317.293 111.514C364.35 146.421 380.372 163.875 387.879 216.235C400.048 301.122 233.676 397.194 202.085 474.864Z" fill="#D64045"/>
<path d="M245.086 277.322C334.007 273.514 337.847 205.922 328.652 171.808C309.18 256.237 238.595 226.548 219.935 220.995C202.841 215.908 145.734 182.215 92.5563 195.608C39.0087 209.095 12.2349 249.555 21.9709 303.502C30.8478 352.689 101.677 382.043 136.368 350.309C161.519 327.303 155.028 297.949 146.104 287.636C148.051 327.62 114.462 330.74 97.4243 327.303C50.3673 316.196 73.8222 249.11 116.085 251.142C165.576 253.522 196.406 279.407 245.086 277.322Z" fill="#D64045"/>
<path d="M280.784 142.454C280.784 167.048 254.551 191.113 239.406 201.162C275.916 139.281 193.972 124.262 193.972 71.8472C193.972 35.3536 224.261 16.5779 241.029 6C194.016 69.6546 280.784 90.6961 280.784 142.454Z" fill="#D64045"/>
<path d="M974.911 604.858C957.478 604.858 942.12 602.573 928.838 598.004C915.833 593.181 905.733 586.707 898.538 578.584C891.343 570.207 887.746 560.942 887.746 550.788V547.361C887.746 546.091 888.161 545.076 888.991 544.315C890.098 543.299 891.343 542.791 892.727 542.791H929.253C930.637 542.791 931.744 543.299 932.574 544.315C933.681 545.076 934.234 546.091 934.234 547.361V548.122C934.234 554.469 937.97 560.053 945.441 564.876C953.189 569.446 962.874 571.73 974.496 571.73C985.564 571.73 994.557 569.699 1001.48 565.638C1008.39 561.322 1011.85 555.992 1011.85 549.645C1011.85 543.807 1008.95 539.491 1003.14 536.699C997.601 533.653 988.47 530.48 975.741 527.18L959.968 522.61C945.856 518.803 933.957 514.741 924.272 510.426C914.587 506.11 906.424 500.272 899.783 492.91C893.142 485.295 889.822 475.648 889.822 463.971C889.822 446.202 897.431 432.113 912.65 421.705C927.87 411.044 947.931 405.713 972.835 405.713C989.715 405.713 1004.52 408.251 1017.25 413.328C1029.98 418.151 1039.8 425.005 1046.72 433.89C1053.64 442.521 1057.09 452.421 1057.09 463.59C1057.09 464.86 1056.54 466.002 1055.43 467.017C1054.6 467.779 1053.5 468.16 1052.11 468.16H1016.83C1015.45 468.16 1014.2 467.779 1013.1 467.017C1012.27 466.002 1011.85 464.86 1011.85 463.59C1011.85 456.99 1008.25 451.533 1001.06 447.217C994.142 442.648 984.596 440.363 972.42 440.363C961.629 440.363 952.774 442.267 945.856 446.075C939.215 449.629 935.894 454.706 935.894 461.306C935.894 467.398 939.076 472.094 945.441 475.394C952.082 478.441 963.012 481.868 978.231 485.675L987.363 487.96C1002.03 492.022 1014.34 496.21 1024.3 500.525C1034.27 504.587 1042.71 510.426 1049.62 518.041C1056.54 525.403 1060 535.049 1060 546.98C1060 565.003 1052.25 579.219 1036.76 589.627C1021.26 599.781 1000.65 604.858 974.911 604.858Z" fill="black"/>
<path d="M853.286 439.221C853.286 440.49 852.732 441.632 851.625 442.648C850.795 443.409 849.688 443.79 848.305 443.79H805.968C804.584 443.79 803.893 444.425 803.893 445.694V537.461C803.893 547.107 806.106 554.088 810.534 558.403C815.238 562.719 822.571 564.876 832.532 564.876H844.984C846.368 564.876 847.475 565.384 848.305 566.399C849.412 567.161 849.965 568.176 849.965 569.446V598.004C849.965 600.796 848.305 602.446 844.984 602.954L823.401 603.335C801.54 603.335 785.214 599.908 774.423 593.054C763.631 586.2 758.097 573.253 757.82 554.215V445.694C757.82 444.425 757.128 443.79 755.744 443.79H732.086C730.702 443.79 729.457 443.409 728.35 442.648C727.52 441.632 727.105 440.49 727.105 439.221V412.567C727.105 411.297 727.52 410.282 728.35 409.52C729.457 408.505 730.702 407.997 732.086 407.997H755.744C757.128 407.997 757.82 407.363 757.82 406.093V361.543C757.82 360.274 758.235 359.258 759.065 358.497C760.172 357.481 761.417 356.974 762.801 356.974H798.912C800.295 356.974 801.402 357.481 802.232 358.497C803.339 359.258 803.893 360.274 803.893 361.543V406.093C803.893 407.363 804.584 407.997 805.968 407.997H848.305C849.688 407.997 850.795 408.505 851.625 409.52C852.732 410.282 853.286 411.297 853.286 412.567V439.221Z" fill="black"/>
<path d="M608.126 404.951C625.559 404.951 640.916 407.743 654.198 413.328C667.481 418.913 677.719 426.655 684.914 436.555C692.108 446.202 695.705 457.244 695.705 469.683V598.004C695.705 599.273 695.152 600.415 694.045 601.431C693.215 602.192 692.108 602.573 690.725 602.573H652.538C651.155 602.573 649.909 602.192 648.803 601.431C647.972 600.415 647.557 599.273 647.557 598.004V585.819C647.557 585.057 647.281 584.677 646.727 584.677C646.174 584.423 645.62 584.55 645.067 585.057C631.508 598.765 611.861 605.619 586.127 605.619C565.374 605.619 548.217 600.796 534.658 591.15C521.376 581.504 514.735 567.161 514.735 548.122C514.735 528.322 522.206 512.964 537.149 502.049C552.368 490.879 573.675 485.295 601.07 485.295H645.482C646.866 485.295 647.557 484.66 647.557 483.391V474.252C647.557 464.352 644.375 456.736 638.011 451.406C631.646 445.821 622.1 443.029 609.371 443.029C598.856 443.029 590.278 444.805 583.637 448.359C577.272 451.659 573.26 456.356 571.6 462.448C570.769 465.494 568.832 466.764 565.789 466.256L525.527 461.687C524.143 461.433 522.898 461.052 521.791 460.544C520.961 459.783 520.684 458.894 520.961 457.879C523.175 442.394 532.168 429.701 547.941 419.801C563.99 409.901 584.052 404.951 608.126 404.951ZM598.164 570.588C611.723 570.588 623.345 567.288 633.03 560.688C642.715 554.088 647.557 545.711 647.557 535.557V517.66C647.557 516.391 646.866 515.756 645.482 515.756H610.616C595.95 515.756 584.328 518.295 575.75 523.372C567.449 528.449 563.298 535.684 563.298 545.076C563.298 553.199 566.48 559.546 572.845 564.115C579.486 568.43 587.926 570.588 598.164 570.588Z" fill="black"/>
<path d="M483.55 483.391C484.657 489.737 485.21 496.845 485.21 504.714L484.795 516.518C484.795 519.564 483.135 521.087 479.814 521.087H349.897C348.514 521.087 347.822 521.722 347.822 522.991C348.652 531.368 349.897 537.08 351.558 540.126C358.199 558.403 374.387 567.669 400.121 567.923C418.937 567.923 433.88 560.815 444.948 546.599C446.055 545.076 447.439 544.315 449.099 544.315C450.206 544.315 451.174 544.695 452.004 545.457L477.739 564.876C480.229 566.653 480.644 568.684 478.984 570.969C470.406 582.138 458.922 590.769 444.533 596.861C430.421 602.954 414.648 606 397.215 606C375.632 606 357.23 601.558 342.011 592.673C327.069 583.788 316.138 571.35 309.221 555.357C302.856 541.649 299.674 522.61 299.674 498.241C299.674 483.518 301.334 471.587 304.655 462.448C310.189 444.679 320.566 430.717 335.785 420.563C351.281 410.155 369.821 404.951 391.404 404.951C445.917 404.951 476.632 431.098 483.55 483.391ZM391.404 443.029C381.166 443.029 372.588 445.44 365.67 450.263C359.029 454.833 354.325 461.306 351.558 469.683C349.897 473.998 348.791 479.583 348.237 486.437C347.684 487.706 348.237 488.341 349.897 488.341H434.156C435.54 488.341 436.232 487.706 436.232 486.437C435.678 480.091 434.848 475.267 433.741 471.967C431.251 462.829 426.27 455.721 418.799 450.644C411.604 445.567 402.473 443.029 391.404 443.029Z" fill="black"/>
</svg>
